<svg xmlns="http://www.w3.org/2000/svg" width="291" height="410" viewBox="0 0 291 410" xmlns:xlink="http://www.w3.org/1999/xlink">
  <defs>
    <path id="a" d="M210.467354,142.242436 L261.400065,188.753231 C266.701963,193.594824 271,203.33527 271,210.523868 L271,307.662495 C271,314.844493 265.943137,317.773472 259.720729,314.21345 L210.467354,286.034146 L210.467354,142.242436 Z"/>
    <path id="b" d="M-7.10542736e-14,142.55122 L50.932711,189.062014 C56.2346087,193.903608 60.532646,203.644053 60.532646,210.832652 L60.532646,307.971279 C60.532646,315.153276 55.4757826,318.082256 49.2533752,314.522233 L-7.10542736e-14,286.34293 L-7.10542736e-14,142.55122 Z"/>
    <path id="c" d="M135.425412,315.84878 C171.781924,315.84878 175.434756,369.147308 175.434756,369.147308 C176.482922,376.245654 171.505504,382 164.328585,382 L106.52224,382 C99.3403044,382 94.2231378,376.216396 95.4160687,369.147308 C95.4160687,369.147308 99.0689008,315.84878 135.425412,315.84878 Z"/>
    <ellipse id="d" cx="135.034" cy="140.688" rx="43.77" ry="43.79"/>
  </defs>
  <g fill="none" fill-rule="evenodd" transform="translate(10 14)">
    <path stroke="#FEC301" stroke-width="18" d="M60.532646,94.102439 C60.532646,55.3714909 118.638351,0 135.5,0 C152.361649,0 210.467354,57.0451156 210.467354,94.102439 M210.467354,94.102439 L210.467354,145.514411 L210.467354,280.443902 L60.532646,280.443902 L60.532646,94.102439"/>
    <use fill="#FFEEC0" xlink:href="#a"/>
    <path stroke="#FEC301" stroke-width="18" d="M219.467354,162.649008 L255.331141,195.399145 C258.767474,198.537139 262,205.866294 262,210.523868 L262,305.148597 L219.467354,280.81442 L219.467354,162.649008 Z"/>
    <g transform="matrix(-1 0 0 1 60.533 0)">
      <use fill="#FFEEC0" xlink:href="#b"/>
      <path stroke="#FEC301" stroke-width="18" d="M9,162.957791 L44.8637875,195.707928 C48.3001197,198.845922 51.532646,206.175078 51.532646,210.832652 L51.532646,305.45738 L9,281.123203 L9,162.957791 Z"/>
    </g>
    <g transform="matrix(1 0 0 -1 0 697.849)">
      <use fill="#FFEEC0" xlink:href="#c"/>
      <path stroke="#FEC301" stroke-width="18" d="M135.425412,324.84878 C147.037355,324.84878 155.154251,332.283674 160.73534,345.909373 C162.862444,351.102495 164.408157,356.760837 165.441733,362.432857 C165.804605,364.424211 166.075873,366.266532 166.268032,367.905286 C166.333662,368.464989 166.384472,368.954402 166.422112,369.366797 C166.442575,369.590987 166.453248,369.725177 166.455818,369.762683 L166.479884,370.113829 L166.5313,370.462023 C166.776222,372.120675 166.01615,373 164.328585,373 L106.52224,373 C104.806698,373 104.0415,372.120991 104.290593,370.644912 L104.364597,370.206377 L104.395006,369.762683 C104.397576,369.725177 104.40825,369.590987 104.428712,369.366797 C104.466353,368.954402 104.517162,368.464989 104.582793,367.905286 C104.774951,366.266532 105.046219,364.424211 105.409091,362.432857 C106.442667,356.760837 107.98838,351.102495 110.115484,345.909373 C115.696573,332.283674 123.813469,324.84878 135.425412,324.84878 Z"/>
    </g>
    <g>
      <use fill="#FFEEC0" xlink:href="#d"/>
      <ellipse cx="135.034" cy="140.688" stroke="#FEC301" stroke-width="18" rx="34.77" ry="34.79"/>
    </g>
  </g>
</svg>
