<svg xmlns="http://www.w3.org/2000/svg" width="291" height="410" viewBox="0 0 291 410" xmlns:xlink="http://www.w3.org/1999/xlink">
  <defs>
    <path id="a" d="M210.467354,142.242436 L261.400065,188.753231 C266.701963,193.594824 271,203.33527 271,210.523868 L271,307.662495 C271,314.844493 265.943137,317.773472 259.720729,314.21345 L210.467354,286.034146 L210.467354,142.242436 Z"/>
    <mask id="e" width="60.533" height="173.486" x="0" y="0" fill="white">
      <use xlink:href="#a"/>
    </mask>
    <path id="b" d="M-7.10542736e-14,142.55122 L50.932711,189.062014 C56.2346087,193.903608 60.532646,203.644053 60.532646,210.832652 L60.532646,307.971279 C60.532646,315.153276 55.4757826,318.082256 49.2533752,314.522233 L-7.10542736e-14,286.34293 L-7.10542736e-14,142.55122 Z"/>
    <mask id="f" width="60.533" height="173.486" x="0" y="0" fill="white">
      <use xlink:href="#b"/>
    </mask>
    <path id="c" d="M135.425412,315.84878 C171.781924,315.84878 175.434756,369.147308 175.434756,369.147308 C176.482922,376.245654 171.505504,382 164.328585,382 L106.52224,382 C99.3403044,382 94.2231378,376.216396 95.4160687,369.147308 C95.4160687,369.147308 99.0689008,315.84878 135.425412,315.84878 Z"/>
    <mask id="g" width="80.331" height="66.151" x="0" y="0" fill="white">
      <use xlink:href="#c"/>
    </mask>
    <ellipse id="d" cx="135.034" cy="140.688" rx="43.77" ry="43.79"/>
    <mask id="h" width="87.54" height="87.58" x="0" y="0" fill="white">
      <use xlink:href="#d"/>
    </mask>
  </defs>
  <g fill="none" fill-rule="evenodd" stroke="#FEC301" transform="translate(10 14)">
    <path stroke-width="18" d="M60.532646,94.102439 C60.532646,55.3714909 118.638351,0 135.5,0 C152.361649,0 210.467354,57.0451156 210.467354,94.102439 M210.467354,94.102439 L210.467354,145.514411 L210.467354,280.443902 L60.532646,280.443902 L60.532646,94.102439"/>
    <use fill="#FFD420" stroke-width="36" mask="url(#e)" xlink:href="#a"/>
    <use fill="#FFD420" stroke-width="36" mask="url(#f)" transform="matrix(-1 0 0 1 60.533 0)" xlink:href="#b"/>
    <use fill="#FFD420" stroke-width="36" mask="url(#g)" transform="matrix(1 0 0 -1 0 697.849)" xlink:href="#c"/>
    <use fill="#FFD420" stroke-width="36" mask="url(#h)" xlink:href="#d"/>
  </g>
</svg>
